<svg width="73" height="86" viewBox="0 0 73 86" fill="none" xmlns="http://www.w3.org/2000/svg">
<path fill-rule="evenodd" clip-rule="evenodd" d="M1 35L1 69.9964C1 78.2821 7.7179 84.9984 16.0036 84.9964L39.631 84.9908C43.9724 84.9908 48.1359 83.2112 51.2056 80.0433C54.2754 76.8755 56 72.5789 56 68.099C56 63.619 54.2754 59.3224 51.2056 56.1546C48.1359 52.9867 43.9724 51.2071 39.631 51.2071C19.9883 51.2071 1 48.5135 1 35Z" fill="#223C65" stroke="#223C65"/>
<path fill-rule="evenodd" clip-rule="evenodd" d="M72 51L72 16.0036C72 7.7179 65.2821 1.00159 56.9964 1.00356L33.369 1.00916C29.0276 1.00916 24.8641 2.78883 21.7944 5.95671C18.7246 9.12452 17 13.4211 17 17.901C17 22.381 18.7246 26.6776 21.7944 29.8454C24.8641 33.0133 29.0276 34.7929 33.369 34.7929C53.0117 34.7929 72 37.4865 72 51Z" fill="#3C5D91" stroke="#3C5D91"/>
</svg>
